<svg width="80" height="80" viewBox="0 0 80 80" fill="none" xmlns="http://www.w3.org/2000/svg"><path d="M10.0171 50.0132l1.25 7.5C11.3199 57.8302 11.4929 58.1148 11.75 58.3077L21.4375 65.5733 22.5641 68.953C22.6471 69.2019 22.8062 69.4184 23.0191 69.5718 23.2319 69.7252 23.4877 69.8077 23.75 69.8077 23.8191 69.8076 23.8881 69.8019 23.9563 69.7906L24.5555 69.6907 23.815 71.9122C23.7722 72.0397 23.7503 72.1732 23.75 72.3077v3.75C23.75 76.3892 23.8817 76.7072 24.1161 76.9416 24.3506 77.176 24.6685 77.3077 25 77.3077H55C55.1902 77.3077 55.3778 77.2643 55.5486 77.1809 55.7195 77.0974 55.869 76.9761 55.9859 76.8261 56.1028 76.6762 56.1839 76.5015 56.2232 76.3155 56.2624 76.1294 56.2586 75.9369 56.2122 75.7525L55.4586 72.7596 63.1305 77.143C63.4054 77.3001 63.7297 77.347 64.0378 77.2742 64.3459 77.2015 64.615 77.0145 64.7907 76.7511 64.7907 76.7511 67.3921 72.8167 67.4044 72.7868 67.4092 72.7753 68.7133 67.6108 68.7133 67.6108 68.7823 67.3349 68.7551 67.0438 68.6363 66.7854 68.5174 66.527 68.3141 66.3169 68.0597 66.1897l-2.5-1.25C65.325 64.8224 65.0594 64.7819 64.8004 64.824 64.5414 64.866 64.3022 64.9885 64.1167 65.1741 64.1167 65.1741 61.3894 67.9611 61.3288 68.1257L58.2894 66.4272 63.4349 60.6383C63.6099 60.4415 63.7182 60.1944 63.7444 59.9324l1.25-12.5C65.0067 47.309 65.0007 47.1845 64.9764 47.0628L63.0196 37.2786C62.6335 35.3483 61.7074 33.5673 60.349 32.1427 58.9905 30.718 57.2556 29.7083 55.3458 29.231L52.8517 28.6074 45.8871 26.2858 45 24.5125V22.6202l.75-.5625C45.9053 21.9413 46.0313 21.7903 46.1181 21.6167 46.2048 21.4431 46.25 21.2517 46.25 21.0577v-2.5C46.5816 18.5577 46.8995 18.426 47.1339 18.1916 47.3683 17.9571 47.5 17.6392 47.5 17.3077V12.5039C48.3286 9.95271 48.7504 7.28696 48.75 4.60456V3.55769C48.75 3.22616 48.6183 2.90822 48.3839 2.6738 48.1495 2.43938 47.8316 2.30769 47.5 2.30769H41.0355C38.5114 2.30067 36.0835 3.27597 34.2657 5.02722L32.2361 6.04206C31.1886 6.56582 30.3076 7.37095 29.6919 8.36721 29.0762 9.36347 28.75 10.5115 28.75 11.6827 28.75 12.8539 29.0762 14.0019 29.6919 14.9982 30.3076 15.9944 31.1886 16.7995 32.2361 17.3233L32.5103 17.4603C32.5476 17.763 32.6942 18.0416 32.9225 18.2437 33.1508 18.4458 33.4451 18.5575 33.75 18.5577v2.5C33.75 21.2517 33.7952 21.4431 33.882 21.6167 33.9688 21.7903 34.0948 21.9413 34.25 22.0577l.75.5625V24.5125L34.0946 26.3233 28.5092 28.5577H27.691C24.8385 28.5577 22.0785 29.5696 19.902 31.4134 17.7254 33.2571 16.2735 35.8132 15.8046 38.6269L15.0702 43.0311 10.2739 49.0264C10.1642 49.1636 10.0846 49.3224 10.0403 49.4924 9.99606 49.6624 9.98813 49.8399 10.0171 50.0132zM26.25 72.5108 27.3449 69.2261 31.4555 68.5411C31.6796 68.5038 31.8893 68.406 32.062 68.2584 32.2348 68.1108 32.364 67.9189 32.4358 67.7033L33.2666 65.211 42.4475 68.8828 41.46 70.3641C41.2864 70.6243 41.2167 70.9402 41.2646 71.2493 41.3125 71.5584 41.4746 71.8383 41.7188 72.0338L45.1866 74.8077H26.25V72.5108zM27.8841 45.4574 28.4186 49.735 25.7269 48.2308 27.8841 45.4574zM38.25 36.3077C38.7558 36.6841 39.3695 36.8874 40 36.8874 40.6305 36.8874 41.2442 36.6841 41.75 36.3077 44.1033 34.5336 45.6713 31.9113 46.1205 28.9986L46.2443 29.0399C46.1881 33.0726 45.3648 37.0577 43.8183 40.7825 43.1992 42.2778 42.4676 43.724 41.6297 45.1086L41.25 45.0327V41.0577C41.25 40.7262 41.1183 40.4082 40.8839 40.1738 40.6495 39.9394 40.3316 39.8077 40 39.8077 39.6685 39.8077 39.3506 39.9394 39.1161 40.1738 38.8817 40.4082 38.75 40.7262 38.75 41.0577V45.0817L35.1455 45.9828 30.5591 43.6897C30.4361 43.6284 30.3038 43.588 30.1675 43.5699L30 42.2296V30.6539L33.895 29.096C34.364 31.9709 35.924 34.5541 38.25 36.3077zM50.2227 72.8172 48.6572 74.3827 44.1758 70.7975 45.8022 68.358 47.0018 67.9582C47.0128 67.9544 47.0232 67.9496 47.0341 67.9455L51.4113 70.4467C51.4016 70.4641 51.391 70.4807 51.3821 70.4986L50.2227 72.8172zM41.7839 57.2036 44.7921 53.8946C47.409 51.0177 49.5197 47.7184 51.0346 44.1366L48.7982 51.9647C48.7663 52.0763 48.7501 52.1917 48.75 52.3077V61.0964L41.7839 57.2036zM51.25 52.4827 52.8191 46.991 53.75 48.8528V56.9072l-2.5 3.5V52.4827zm0-21.7586C51.2563 38.6722 48.2934 46.336 42.9424 52.213L39.5436 55.9516 37.0291 54.5464 38.6613 52.9144C44.8017 46.7754 48.3958 38.543 48.7238 29.8663L51.25 30.7086V30.7241zM31.1272 51.2483 30.53 46.4702 34.441 48.4257C34.7078 48.5591 35.0137 48.5927 35.3032 48.5203L40.0303 47.3385 40.1322 47.3589C39.1527 48.7037 38.0699 49.97 36.8935 51.1464L34.761 53.2789 31.1272 51.2483zM24.1741 50.2267 36.5313 57.1322 35.2099 59.1143C35.1178 59.2508 35.0536 59.4042 35.0209 59.5657 34.9883 59.7271 34.9879 59.8934 35.0198 60.055 35.0516 60.2166 35.1151 60.3703 35.2066 60.5073 35.2981 60.6443 35.4157 60.7619 35.5527 60.8532 35.6898 60.9446 35.8435 61.008 36.0051 61.0398 36.1668 61.0715 36.3331 61.071 36.4945 61.0383 36.6559 61.0056 36.8093 60.9413 36.9458 60.8491 37.0823 60.7569 37.1992 60.6386 37.2899 60.5011L38.7203 58.3555 40.4777 59.3375 38.9599 61.6143C38.8678 61.7508 38.8036 61.9042 38.7709 62.0657 38.7383 62.2271 38.7379 62.3934 38.7698 62.555 38.8016 62.7166 38.8651 62.8703 38.9566 63.0073 39.0481 63.1443 39.1657 63.2619 39.3027 63.3532 39.4398 63.4446 39.5935 63.508 39.7551 63.5398 39.9168 63.5715 40.0831 63.571 40.2445 63.5383 40.4059 63.5056 40.5593 63.4413 40.6958 63.3491 40.8323 63.2569 40.9492 63.1386 41.0399 63.0011L42.6667 60.5608 46.9966 62.9805 45.1574 65.9375 44.6047 66.1217C44.341 66.2096 44.1141 66.3829 43.9599 66.6143L43.8646 66.7572 33.2032 62.4924 29.6346 58.9238C29.5184 58.8076 29.3805 58.7155 29.2287 58.6527 29.077 58.5899 28.9143 58.5576 28.75 58.5577H25.6008L21.5921 53.5469 24.1741 50.2267zM51.7678 74.8077 52.1339 74.4416C52.229 74.3466 52.3082 74.2369 52.3683 74.1167L52.9366 72.9805 53.3963 74.8077H51.7678zM63.3572 74.3936 48.2217 65.7452 49.1816 64.2019 64.4599 72.7399 63.3572 74.3936zM65.2469 67.5786 66.0438 67.9772 65.4332 70.4196 63.4908 69.3343 65.2469 67.5786zM58.4077 33.733C59.5114 34.8346 60.2631 36.2392 60.5674 37.7686L62.4875 47.3702 61.2969 59.28 56.0541 65.178 52.3807 63.1253 56.0172 58.0342C56.1686 57.8222 56.25 57.5682 56.25 57.3077v-8.75C56.25 48.3636 56.2048 48.1722 56.118 47.9986L53.75 43.2625V31.4086L54.7389 31.6558C56.1274 32.0031 57.3955 32.721 58.4077 33.733zM35 16.0577v-2.5H45v2.5H42.7952L40.5591 14.9397C40.3855 14.8529 40.1941 14.8077 40 14.8077 39.806 14.8077 39.6145 14.8529 39.441 14.9397L37.2049 16.0577H35zm-3.75-4.375C31.2476 10.9753 31.4435 10.2814 31.8154 9.67963 32.1873 9.07788 32.7203 8.59237 33.3541 8.27815L35.5591 7.17565C35.6793 7.11558 35.789 7.03643 35.8839 6.94128 36.5589 6.26269 37.3617 5.72471 38.246 5.35848 39.1303 4.99224 40.0784 4.80503 41.0355 4.80769h5.2136C46.2312 6.92327 45.9223 9.02633 45.331 11.0577H33.75C33.4185 11.0577 33.1006 11.1894 32.8661 11.4238 32.6317 11.6582 32.5 11.9762 32.5 12.3077V14.5046C32.1051 14.1485 31.7896 13.7131 31.5742 13.2269 31.3588 12.7407 31.2484 12.2145 31.25 11.6827zm6.25 6.875C37.6941 18.5577 37.8855 18.5125 38.0591 18.4257L40 17.4552 41.941 18.4257C42.1145 18.5125 42.306 18.5577 42.5 18.5577h1.25v1.875l-2.5 1.875h-2.5l-2.5-1.875v-1.875H37.5zM37.5835 24.5577C37.7998 24.72 38.063 24.8077 38.3335 24.8077H41.6669C41.9374 24.8077 42.2005 24.72 42.4169 24.5577L42.5 24.4952v.3125C42.5 25.0018 42.5452 25.1932 42.6321 25.3667L43.7414 27.5855C43.6973 28.8954 43.3608 30.1788 42.7567 31.3419 42.1527 32.5049 41.2962 33.5183 40.25 34.3077 40.1778 34.3614 40.0901 34.3904 40 34.3904 39.91 34.3904 39.8223 34.3614 39.75 34.3077 38.7039 33.5184 37.8474 32.5052 37.2433 31.3423 36.6391 30.1793 36.3026 28.896 36.2583 27.5863L37.3677 25.3675C37.4548 25.1938 37.5001 25.0021 37.5 24.8077v-.3125L37.5835 24.5577zM17.2261 44.3389C17.3596 44.1723 17.448 43.9742 17.483 43.7636L18.2705 39.0385C18.6366 36.8408 19.7596 34.8402 21.4451 33.3831 23.1306 31.9261 25.2725 31.1041 27.5 31.0596V41.8788L23.1628 47.455C23.0076 47.5372 22.8716 47.6514 22.7638 47.7901 22.6561 47.9288 22.579 48.0888 22.5378 48.2596L19.0139 52.7908C18.8415 53.0125 18.7488 53.2859 18.7507 53.5667 18.7527 53.8476 18.8491 54.1196 19.0246 54.3389l5 6.25C24.1416 60.7352 24.2901 60.8532 24.4589 60.9344 24.6278 61.0155 24.8127 61.0576 25 61.0577H28.2324L31.0699 63.8953 30.3022 66.1983 24.5982 67.1491 23.6858 64.4124C23.6054 64.1712 23.4534 63.9602 23.25 63.8077L13.6507 56.6082 12.5749 50.1527 17.2261 44.3389z" fill="#fff"/></svg>