<svg width="80" height="80" viewBox="0 0 80 80" fill="none" xmlns="http://www.w3.org/2000/svg"><g clip-path="url(#clip0)"><path d="M77.9187 25.1071C77.6821 24.544 77.331 24.0363 76.8878 23.616 76.4445 23.1958 75.9188 22.8722 75.3439 22.6659 74.769 22.4596 74.1575 22.375 73.5482 22.4175 72.9389 22.46 72.345 22.6286 71.8044 22.9128 69.7469 23.9912 67.7699 25.2167 65.8887 26.5796 65.8887 26.3484 65.8887 26.1178 65.8887 25.8865 65.8887 19.0212 63.1615 12.4371 58.307 7.58261 53.4525 2.72811 46.8684 88501e-8 40.0031 88501e-8 33.1378 88501e-8 26.5537 2.72811 21.6992 7.58261 16.8447 12.4371 14.1175 19.0212 14.1175 25.8865V26.5796C12.2363 25.2167 10.2593 23.9912 8.20186 22.9128 7.22775 22.3956 6.0952 22.2622 5.02757 22.5388 3.95994 22.8155 3.03474 23.4822 2.43441 24.4074 1.83409 25.3326 1.60223 26.4491 1.78455 27.5369 1.96688 28.6246 2.55016 29.6045 3.41936 30.2834 7.12911 33.3125 10.4133 36.8281 13.1831 40.7353 12.6488 45.0196 11.8839 49.272 10.8919 53.474L7.41686 67.6152C7.38115 67.7609 7.37575 67.9123 7.40102 68.0601 7.42628 68.2079 7.48166 68.3489 7.56372 68.4744 7.64577 68.5999 7.75275 68.7071 7.87802 68.7895 8.00328 68.8719 8.14414 68.9277 8.29186 68.9534L12.38 69.6665C13.1056 69.7929 13.7955 70.0738 14.4031 70.49 15.0107 70.9062 15.5218 71.4481 15.9019 72.079L16.3987 72.9046C17.1225 74.102 18.1731 75.0679 19.4269 75.6888 20.6808 76.3097 22.0858 76.5598 23.4769 76.4096L24.4406 76.304C25.1701 76.2249 25.9081 76.3025 26.6053 76.5315 27.3024 76.7606 27.9426 77.1358 28.4831 77.6321L29.1262 78.2234C30.1772 79.1908 31.488 79.83 32.8974 80.0624 34.3068 80.2949 35.7534 80.1103 37.0594 79.5315L37.9169 79.1515C38.5734 78.8622 39.2831 78.7128 40.0006 78.7128 40.7181 78.7128 41.4278 78.8622 42.0844 79.1515L42.9419 79.5315C44.2477 80.1109 45.6944 80.2957 47.104 80.0633 48.5135 79.8309 49.8243 79.1913 50.875 78.2234L51.5181 77.6321C52.0586 77.1359 52.6989 76.7607 53.396 76.5317 54.0931 76.3027 54.8311 76.225 55.5606 76.304L56.5244 76.4096C57.9156 76.5605 59.321 76.3108 60.575 75.6897 61.829 75.0686 62.8794 74.1021 63.6025 72.904L64.1025 72.0796C64.4824 71.4486 64.9934 70.9065 65.6011 70.4902 66.2087 70.0738 66.8987 69.7929 67.6244 69.6665L71.7125 68.9534C71.8602 68.9277 72.0011 68.8719 72.1263 68.7895 72.2516 68.7071 72.3586 68.5999 72.4406 68.4744 72.5227 68.3489 72.5781 68.2079 72.6033 68.0601 72.6286 67.9123 72.6232 67.7609 72.5875 67.6152L69.115 53.4828C68.1215 49.2771 67.3558 45.0209 66.8212 40.7328 69.591 36.8256 72.8752 33.31 76.585 30.2809 77.3449 29.6849 77.8874 28.8552 78.1285 27.92 78.3695 26.9848 78.2958 25.9962 77.9187 25.1071zM75.2406 28.5553C71.2363 31.82 67.7098 35.6305 64.7644 39.8753 64.6251 40.0902 64.5656 40.3472 64.5962 40.6015 65.1431 45.1076 65.9403 49.5797 66.9844 53.9971L70.1794 66.9971 67.2419 67.5096C66.2077 67.6894 65.2242 68.0894 64.3581 68.6825 63.492 69.2756 62.7634 70.0479 62.2219 70.9471L61.7219 71.7721C61.2137 72.612 60.4766 73.2895 59.5969 73.7251 58.7173 74.1607 57.7316 74.3364 56.7556 74.2315L55.7912 74.1259C54.7516 74.0123 53.6997 74.1224 52.7062 74.4488 51.7126 74.7752 50.8003 75.3104 50.0306 76.0184L49.3875 76.6096C48.6503 77.2888 47.7306 77.7376 46.7416 77.9008 45.7527 78.064 44.7376 77.9346 43.8212 77.5284L42.9637 77.1478C42.0287 76.7339 41.0175 76.5202 39.995 76.5202 38.9725 76.5202 37.9613 76.7339 37.0262 77.1478L36.1687 77.5284C35.2523 77.9343 34.2373 78.0637 33.2484 77.9004 32.2595 77.7372 31.3398 77.2885 30.6025 76.6096L29.9594 76.0184C29.1896 75.3104 28.2774 74.7752 27.2838 74.4488 26.2902 74.1224 25.2384 74.0123 24.1987 74.1259L23.2344 74.2315C22.2585 74.3359 21.2731 74.1601 20.3935 73.7246 19.514 73.2892 18.7767 72.6121 18.2681 71.7728L17.7712 70.9471C17.2297 70.0479 16.5011 69.2756 15.635 68.6825 14.7689 68.0894 13.7854 67.6894 12.7512 67.5096L9.81374 66.9971 13.0112 53.9846C14.054 49.5702 14.8505 45.1012 15.3969 40.5984 15.4275 40.3441 15.368 40.0871 15.2287 39.8721 12.2852 35.6289 8.76105 31.8196 4.75936 28.5553 4.32643 28.2107 4.03758 27.7171 3.94928 27.1709 3.86099 26.6247 3.97961 26.0652 4.28195 25.6018 4.58428 25.1384 5.04859 24.8045 5.58408 24.6652 6.11958 24.526 6.68774 24.5915 7.17749 24.849 9.76147 26.193 12.2039 27.7931 14.4681 29.6253 14.626 29.7561 14.8176 29.84 15.0209 29.8672 15.2242 29.8944 15.431 29.8639 15.6178 29.7792 15.8046 29.6944 15.9638 29.5589 16.0773 29.388 16.1907 29.2171 16.2538 29.0178 16.2594 28.8128 16.2831 27.8384 16.3019 26.864 16.3019 25.889 16.3019 19.6039 18.7986 13.5762 23.2429 9.1319 27.6871 4.68764 33.7148 2.19088 40 2.19088 46.2851 2.19088 52.3128 4.68764 56.7571 9.1319 61.2013 13.5762 63.6981 19.6039 63.6981 25.889 63.6981 26.864 63.7169 27.8384 63.7406 28.8128 63.7456 29.0181 63.8083 29.2178 63.9215 29.3891 64.0347 29.5605 64.1939 29.6965 64.3808 29.7816 64.5677 29.8667 64.7748 29.8974 64.9783 29.8704 65.1819 29.8433 65.3737 29.7594 65.5319 29.6284 67.796 27.796 70.2385 26.1957 72.8225 24.8515 73.0948 24.7084 73.394 24.6235 73.7009 24.6022 74.0078 24.5809 74.3158 24.6236 74.6054 24.7276 74.8949 24.8316 75.1597 24.9947 75.3829 25.2065 75.6061 25.4182 75.7828 25.6741 75.9019 25.9578 76.0923 26.4032 76.1307 26.899 76.0112 27.3685 75.8917 27.838 75.6209 28.2551 75.2406 28.5553z" fill="#fff"/><path d="M31.9138 13.8281C29.3938 13.8281 27.3438 16.3344 27.3438 19.4144 27.3438 22.4944 29.3938 25 31.9138 25 34.4338 25 36.4844 22.4937 36.4844 19.4144 36.4844 16.335 34.4375 13.8281 31.9138 13.8281zm0 8.9844C30.6225 22.8125 29.5312 21.2562 29.5312 19.4144 29.5312 17.5725 30.625 16.0156 31.9138 16.0156 33.2025 16.0156 34.2969 17.5719 34.2969 19.4144 34.2969 21.2569 33.2056 22.8125 31.9138 22.8125z" fill="#fff"/><path d="M48.0856 13.8281C45.5656 13.8281 43.5156 16.3344 43.5156 19.4144 43.5156 22.4944 45.5656 25 48.0856 25 50.6056 25 52.6562 22.4937 52.6562 19.4144 52.6562 16.335 50.6062 13.8281 48.0856 13.8281zm0 8.9844C46.7944 22.8125 45.7031 21.2562 45.7031 19.4144 45.7031 17.5725 46.7944 16.0156 48.0856 16.0156 49.3769 16.0156 50.4688 17.5719 50.4688 19.4144 50.4688 21.2569 49.375 22.8125 48.0856 22.8125z" fill="#fff"/><path d="M40 24.2969C37.35 24.2969 35.2731 27.4713 35.2731 31.5238 35.2731 35.5763 37.35 38.75 40 38.75 42.65 38.75 44.7262 35.5756 44.7262 31.5238 44.7262 27.4719 42.65 24.2969 40 24.2969zm0 12.2656C38.8012 36.5625 37.4606 34.4075 37.4606 31.5238 37.4606 28.64 38.8012 26.4844 40 26.4844 41.1987 26.4844 42.5387 28.6394 42.5387 31.5238 42.5387 34.4081 41.1987 36.5625 40 36.5625z" fill="#fff"/></g><defs><clipPath id="clip0"><path d="M0 0h80v80H0z" fill="#fff"/></clipPath></defs></svg>