<svg width="80" height="80" viewBox="0 0 80 80" fill="none" xmlns="http://www.w3.org/2000/svg"><path d="M56.8121 49.1391C56.0956 48.4974 54.9947 48.56 54.3565 49.2748 50.7286 53.3287 45.4973 55.6522 39.9999 55.6522 34.5043 55.6522 29.2712 53.3287 25.6434 49.2748 25.0017 48.56 23.9043 48.4974 23.1878 49.1391 22.4712 49.7791 22.4121 50.8783 23.0521 51.5948 27.3391 56.3843 33.5165 59.1304 39.9999 59.1304 46.4852 59.1304 52.6626 56.3826 56.9478 51.5948 57.5878 50.8783 57.5269 49.7791 56.8121 49.1391z" fill="#fff"/><path d="M40 0C17.9443.0.0 17.9443.0 40 0 62.0556 17.9443 80 40 80c22.0556.0 40-17.9444 40-40C80 17.9443 62.0556.0 40 0zm0 76.5217C19.8609 76.5217 3.47826 60.1391 3.47826 40 3.47826 19.8609 19.8609 3.47826 40 3.47826 60.1391 3.47826 76.5217 19.8609 76.5217 40 76.5217 60.1391 60.1391 76.5217 40 76.5217z" fill="#fff"/><path d="M53.913 27.8261C49.1182 27.8261 45.2174 31.727 45.2174 36.5218 45.2174 37.4818 45.9965 38.2609 46.9565 38.2609 47.9165 38.2609 48.6956 37.4818 48.6956 36.5218 48.6956 33.6452 51.0365 31.3044 53.913 31.3044 56.7895 31.3044 59.1304 33.6452 59.1304 36.5218 59.1304 37.4818 59.9095 38.2609 60.8695 38.2609 61.8295 38.2609 62.6087 37.4818 62.6087 36.5218 62.6087 31.727 58.7078 27.8261 53.913 27.8261z" fill="#fff"/><path d="M31.3044 36.5218C31.3044 37.4818 32.0835 38.2609 33.0435 38.2609 34.0035 38.2609 34.7826 37.4818 34.7826 36.5218 34.7826 31.727 30.8817 27.8261 26.087 27.8261 21.2922 27.8261 17.3913 31.727 17.3913 36.5218 17.3913 37.4818 18.1704 38.2609 19.1304 38.2609 20.0904 38.2609 20.8696 37.4818 20.8696 36.5218 20.8696 33.6452 23.2104 31.3044 26.087 31.3044 28.9635 31.3044 31.3044 33.6452 31.3044 36.5218z" fill="#fff"/></svg>