<svg width="20" height="20" viewBox="0 0 20 20" fill="none" xmlns="http://www.w3.org/2000/svg"><path d="M19 19l-6-6 6 6zM15 8C15 8.91925 14.8189 9.82951 14.4672 10.6788 14.1154 11.5281 13.5998 12.2997 12.9497 12.9497 12.2997 13.5998 11.5281 14.1154 10.6788 14.4672 9.82951 14.8189 8.91925 15 8 15 7.08075 15 6.1705 14.8189 5.32122 14.4672 4.47194 14.1154 3.70026 13.5998 3.05025 12.9497 2.40024 12.2997 1.88463 11.5281 1.53284 10.6788 1.18106 9.82951 1 8.91925 1 8 1 6.14348 1.7375 4.36301 3.05025 3.05025 4.36301 1.7375 6.14348 1 8 1 9.85652 1 11.637 1.7375 12.9497 3.05025 14.2625 4.36301 15 6.14348 15 8z" stroke="#fff" stroke-width="2" stroke-linecap="round" stroke-linejoin="round"/></svg>